<?xml version="1.0" encoding="UTF-8"?>
<svg width="32" height="32" viewBox="0 0 24 24" fill="none" xmlns="http://www.w3.org/2000/svg">
  <path d="M12 2C6.48 2 2 6.48 2 12s4.48 10 10 10 10-4.48 10-10S17.52 2 12 2zm0 18c-4.41 0-8-3.59-8-8s3.59-8 8-8 8 3.59 8 8-3.59 8-8 8zm-5-9c.83 0 1.5-.67 1.5-1.5S7.83 8 7 8s-1.5.67-1.5 1.5S6.17 11 7 11zm3-4c.83 0 1.5-.67 1.5-1.5S10.83 4 10 4s-1.5.67-1.5 1.5S9.17 7 10 7zm4 0c.83 0 1.5-.67 1.5-1.5S14.83 4 14 4s-1.5.67-1.5 1.5S13.17 7 14 7zm3 4c.83 0 1.5-.67 1.5-1.5S17.83 8 17 8s-1.5.67-1.5 1.5S16.17 11 17 11z" fill="#4F46E5"/>
</svg>
