<?xml version="1.0" encoding="UTF-8"?>
<svg width="32" height="32" viewBox="0 0 32 32" fill="none" xmlns="http://www.w3.org/2000/svg">
  <path d="M16 2C8.268 2 2 8.268 2 16s6.268 14 14 14 14-6.268 14-14S23.732 2 16 2z" fill="#22C55E"/>
  <path d="M22.5 11.5c0 1.38-1.12 2.5-2.5 2.5s-2.5-1.12-2.5-2.5S18.62 9 20 9s2.5 1.12 2.5 2.5z" fill="white"/>
  <path d="M14.5 11.5c0 1.38-1.12 2.5-2.5 2.5S9.5 12.88 9.5 11.5 10.62 9 12 9s2.5 1.12 2.5 2.5z" fill="white"/>
  <path d="M16 23c-3.87 0-7-3.13-7-7h14c0 3.87-3.13 7-7 7z" fill="white"/>
</svg>
